{"title":"Creed.2015.HDCAM.XVID.AC3.HQ.Hive-CM8","uid":12881052,"size":1745359412,"categoryP":"video","categoryS":"movies","magnet":"?xt=urn:btih:37ac34e89653f42414df3efa82f7af1b7f1b936a&amp;dn=Creed.2015.HDCAM.XVID.AC3.HQ.Hive-CM8&amp;tr=udp%3A%2F%2Ftracker.leechers-paradise.org%3A6969&amp;tr=udp%3A%2F%2Fzer0day.ch%3A1337&amp;tr=udp%3A%2F%2Fopen.demonii.com%3A1337&amp;tr=udp%3A%2F%2Ftracker.coppersurfer.tk%3A6969&amp;tr=udp%3A%2F%2Fexodus.desync.com%3A6969","seeders":0,"leechers":0,"uploader":"TvTeam","files":4,"time":1449008392,"description":"------------------------------------------------------------------------\r\n\r  https://www.torrenting.com\r\n\r\nSign up is OPEN - for time being. Come and have fun.\r\n\r\n------------------------------------------------------------------------[center][img]http://img905.imageshack.us/img905/8180/ccN2tF.jpg[/img]\r\n\r\n \r\n[color=blue][size=4][b]Creed.2015.HDCAM.XVID.AC3.HQ.Hive-CM8[/b][/size][/color]\r\n\r\nThx Hive\r\n\r\nCM8 Doing It Right The First Time \r\n\r\nSource: DVD-R from a friend\r\nthx m8\r\n\r\nNotes:\r\n\r\nQuality was really nice on this one, no movements, no heads, no focus issues\r\n\r\n\r\nEncode:\r\n\r\nfixed brightness and contrast, added slightly sharpness and cleaned audio\r\nEnglish subs were already hardcoded, no need to crop them away\r\nfor a cam its as good as it gets\r\n\r\nwill do me till retail/screener\r\nenjoy\r\n\r\n\r\nVideo: 720x304 @bitrate 1600 2pass\r\nAudio: English Mic Stereo 2.0\r\nSample: yes included\r\n\r\nPS: am still looking for screener guys, the more the better, even when some chinese or korean subbed version is out, they are still useful\r\nwho wants to help me out?\r\n\r\n\r\n \nhttp://www.imdb.com/title/tt3076658/\r\n\r\n\r\n\r\nGeneral\r\nComplete name                  : Creed.2015.HDCAM.XVID.AC3.HQ.Hive-CM8.avi\r\nFormat                         : AVI\r\nFormat/Info                    : Audio Video Interleave\r\nFile size                      : 1.61 GiB\r\nDuration                       : 2h 3mn\r\nOverall bit rate               : 1 867 Kbps\r\nWriting application            : Nandub v1.0rc2\r\nWriting library                : Nandub build 1853/release\r\n\r\nVideo\r\nID                             : 0\r\nFormat                         : MPEG-4 Visual\r\nFormat profile                 : Advanced   \r\nFormat settings, BVOP          : 2\r\nFormat settings, QPel          : Yes\r\nFormat settings, GMC           : No warppoints\r\nFormat settings, Matrix        : Default (H.263)\r\nMuxing mode                    : Packed bitstream\r\nCodec ID                       : XVID\r\nCodec ID/Hint                  : XviD\r\nDuration                       : 2h 3mn\r\nBit rate                       : 1 600 Kbps\r\nWidth                          : 720 pixels\r\nHeight                         : 304 pixels\r\nDisplay aspect ratio           : 2.35:1\r\nFrame rate                     : 29.970 fps\r\nColor space                    : YUV\r\nChroma subsampling             : 4:2:0\r\nBit depth                      : 8 bits\r\nScan type                      : Progressive\r\nCompression mode               : Lossy\r\nBits/(Pixel*Frame)             : 0.244\r\nStream size                    : 1.38 GiB (86%)\r\nWriting library                : XviD 1.2.1 (UTC 2008-12-04)\r\n\r\nAudio\r\nID                             : 1\r\nFormat                         : AC-3\r\nFormat/Info                    : Audio Coding 3\r\nMode extension                 : CM (complete main)\r\nFormat settings, Endianness    : Big\r\nCodec ID                       : 2000\r\nDuration                       : 2h 3mn\r\nBit rate mode                  : Constant\r\nBit rate                       : 256 Kbps\r\nChannel(s)                     : 2 channels\r\nChannel positions              : Front: L R\r\nSampling rate                  : 48.0 KHz\r\nBit depth                      : 16 bits\r\nCompression mode               : Lossy\r\nDelay relative to video        : 24ms\r\nStream size                    : 226 MiB (14%)\r\nAlignment                      : Split accross interleaves\r\nInterleave, duration           : 33 ms (1.00 video frame)\r\nInterleave, preload duration   : 500 ms\r\n\r\n\r\n\r\nScreens \r\n\r\n[img]http://img633.imageshack.us/img633/2520/Wxny8J.png[/img]\r\n[img]http://img911.imageshack.us/img911/1748/9FImkf.png[/img]\r\n[img]http://img903.imageshack.us/img903/3531/eV1hc5.png[/img]\r\n[img]http://img905.imageshack.us/img905/2412/zYBeiR.png[/img]\r\n[img]http://img910.imageshack.us/img910/2394/oz3TlN.png[/img]\r\n[img]http://img907.imageshack.us/img907/5535/XBjBav.png[/img]\r\n[img]http://img908.imageshack.us/img908/5350/c4gmJF.png[/img]\r\n[img]http://img910.imageshack.us/img910/3647/4mn1ei.png[/img]\r\n\r\nThe former World Heavyweight Champion Rocky Balboa serves as a trainer and mentor to Adonis Johnson, \r\nthe son of his late friend and former rival Apollo Creed.\r\n\r\nCast\r\n\r\nMichael B. Jordan     ... \tAdonis Johnson\r\nSylvester Stallone    ... \tRocky Balboa\r\nTessa Thompson \t      ... \tBianca\r\nPhylicia Rashad       ... \tMary Anne Creed \r\n\r\n\r\nSugarB,iNCOMiNG,Izzy,MenaceIISociety,jiinx,SiMPLE,CherryBomb,bigguy79\r\nranbailey,ViSiON,UnKnOwN,YanKeeS,COPYxRIGHT,THC,VAiN,ACAB,DRs\r\nLKRG,Kingstoner,SiMPLE,TiTAN,cadance,PLAYNOW\r\nUnevano,BigVik,Rapeseed,SAFC,goldadvance,KaN1vE,Pinnz,Wayne,HiGH\r\nSeeN,jtr,Limey,ICONiK,TED,rkofan,mrtoke09\r\nMr Hive\r\n\r\n\r\n\r\nLOOKING FOR ANYTHING YOU WANT TO LOOK AND SOUND BETTER\r\n\r\nCOME FIND US WE DONT BITE \r\n  [/center]","torrent":{"xt":"urn:btih:37ac34e89653f42414df3efa82f7af1b7f1b936a","amp;dn":"Creed.2015.HDCAM.XVID.AC3.HQ.Hive-CM8","amp;tr":["udp%3A%2F%2Ftracker.leechers-paradise.org%3A6969","udp%3A%2F%2Fzer0day.ch%3A1337","udp%3A%2F%2Fopen.demonii.com%3A1337","udp%3A%2F%2Ftracker.coppersurfer.tk%3A6969","udp%3A%2F%2Fexodus.desync.com%3A6969"],"infoHash":"37ac34e89653f42414df3efa82f7af1b7f1b936a","infoHashBuffer":{"type":"Buffer","data":[55,172,52,232,150,83,244,36,20,223,62,250,130,247,175,27,127,27,147,106]},"announce":[],"urlList":[]}}